<svg width="75" height="76" viewBox="0 0 75 76" fill="none" xmlns="http://www.w3.org/2000/svg">
<g filter="url(#filter0_b_17_470)">
<circle cx="37.5" cy="37.9798" r="37.5" fill="#F7931A" fill-opacity="0.2"/>
<circle cx="37.5" cy="37.9798" r="36.1274" stroke="#F7931A" stroke-opacity="0.5" stroke-width="2.74523"/>
</g>
<path fill-rule="evenodd" clip-rule="evenodd" d="M47.0099 19.5192C46.7186 19.6369 46.4666 20.0249 46.4666 20.3558C46.4666 20.6317 46.5831 20.7747 47.8275 22.0274C48.5759 22.7808 49.188 23.4341 49.1877 23.4791C49.1867 23.5822 42.2246 30.4438 42.096 30.4684C42.0439 30.4783 40.3746 28.4314 38.3865 25.9198C36.3984 23.4082 34.6694 21.2471 34.5444 21.1175C34.3647 20.9312 34.2398 20.8817 33.949 20.8818C33.5897 20.8819 33.4145 21.0148 26.6066 26.4535C22.7706 29.5179 19.5461 32.1227 19.4408 32.2419C19.3124 32.3872 19.2494 32.5672 19.2494 32.7886C19.2494 33.0706 19.3439 33.2395 19.8983 33.9488C21.2834 35.7207 21.3247 35.7662 21.6309 35.8591C22.0169 35.9761 22.2392 35.8889 22.8744 35.3711C23.1495 35.1469 23.9678 34.4908 24.6929 33.9131C25.4179 33.3354 26.0888 32.7984 26.1838 32.7197C26.2787 32.641 26.9293 32.1192 27.6297 31.5601C28.33 31.0009 29.1901 30.3134 29.5409 30.0323C30.3168 29.4107 33.1204 27.1772 33.2458 27.0809C33.3019 27.0378 33.6723 27.4344 34.2309 28.1356C36.853 31.4281 40.2582 35.7136 40.6751 36.2458C41.1978 36.9133 41.3881 37.0419 41.8522 37.0419C42.1461 37.0419 42.3103 36.8957 44.8889 34.3372C49.4737 29.7879 52.4872 26.8202 52.5361 26.8062C52.5617 26.7989 53.1937 27.3935 53.9405 28.1275C55.0138 29.1822 55.3601 29.4734 55.5927 29.5171C55.9684 29.5876 56.3593 29.3937 56.4933 29.0704C56.5656 28.8956 56.5861 27.6268 56.569 24.3814L56.5455 19.9321L56.2677 19.6839L55.9899 19.4358L51.5897 19.4412C49.1696 19.4442 47.1088 19.4793 47.0099 19.5192ZM30.3849 32.4425L30.1363 32.6911V44.6533C30.1363 52.6951 30.165 56.6691 30.2239 56.7791C30.4248 57.1545 30.6944 57.1997 32.7347 57.1997H34.6612L34.9503 56.9105L35.2395 56.6213V44.6968V32.7722L34.9503 32.4831L34.6612 32.1939H32.6473H30.6335L30.3849 32.4425ZM49.4435 32.3027C49.3265 32.3611 49.1636 32.5423 49.0813 32.7054C48.9405 32.9847 48.9331 33.6895 48.9538 44.8437L48.9757 56.6855L49.2114 56.9213L49.4471 57.1572L51.4522 57.1828C53.1911 57.2051 53.4855 57.1902 53.669 57.0699C54.1463 56.7571 54.1257 57.3553 54.1014 44.5196L54.0789 32.6903L53.8011 32.4421L53.5233 32.1939L51.5897 32.1952C50.216 32.196 49.5946 32.2271 49.4435 32.3027ZM21.1631 39.3496C21.0696 39.4024 20.9269 39.5267 20.846 39.6259C20.7091 39.7939 20.699 40.3732 20.6972 48.167C20.6952 57.2498 20.6759 56.8772 21.1607 57.098C21.3121 57.167 21.9863 57.1997 23.2591 57.1997C25.2928 57.1997 25.504 57.1578 25.7063 56.7139C25.7706 56.5726 25.7986 53.9895 25.7986 48.1814V39.8514L25.5505 39.5737L25.3025 39.2959L23.3179 39.2748C21.965 39.2604 21.2791 39.2843 21.1631 39.3496ZM39.839 39.8138L39.5773 40.034V48.3569V56.6798L39.7824 56.9185L39.9876 57.1572L42.0302 57.1827L44.0729 57.2082L44.3554 56.9558L44.638 56.7033L44.6625 48.6375C44.6761 44.2013 44.664 40.443 44.6357 40.2857C44.6073 40.1285 44.4928 39.9084 44.381 39.7967C44.1782 39.5938 44.1749 39.5936 42.1393 39.5936H40.1006L39.839 39.8138Z" fill="#F7931A"/>
<defs>
<filter id="filter0_b_17_470" x="-12.8111" y="-12.3313" width="100.622" height="100.622" filterUnits="userSpaceOnUse" color-interpolation-filters="sRGB">
<feFlood flood-opacity="0" result="BackgroundImageFix"/>
<feGaussianBlur in="BackgroundImage" stdDeviation="6.40554"/>
<feComposite in2="SourceAlpha" operator="in" result="effect1_backgroundBlur_17_470"/>
<feBlend mode="normal" in="SourceGraphic" in2="effect1_backgroundBlur_17_470" result="shape"/>
</filter>
</defs>
</svg>
