<svg width="296" height="219" viewBox="0 0 296 219" fill="none" xmlns="http://www.w3.org/2000/svg">
<path d="M294.938 98.3374V108.551L147.966 114.474V104.26L294.938 98.3374Z" fill="#379B19"/>
<path d="M135.853 0.664551V10.8778L147.967 114.474V104.26L135.853 0.664551Z" fill="#000A21"/>
<path d="M147.907 0.311523V10.5248L147.966 114.473V104.26L147.907 0.311523Z" fill="#000A21"/>
<path d="M122.135 1.92383V12.1371L147.967 114.473V104.259L122.135 1.92383Z" fill="#1665BF"/>
<path d="M135.853 0.664115C140.082 0.417511 143.665 0.312719 147.909 0.311523V10.5248C143.665 10.526 140.082 10.6308 135.853 10.8774V0.664115Z" fill="#000A21"/>
<path d="M135.846 0.664551V10.8778L147.962 114.474V104.26L135.846 0.664551Z" fill="#1665BF"/>
<path d="M104.123 5.02832V15.2416L147.963 114.474V104.26L104.123 5.02832Z" fill="#51E0AB"/>
<path d="M122.135 1.92475C126.924 1.32197 131.002 0.947281 135.85 0.664551V10.8778C131.002 11.1605 126.924 11.5352 122.135 12.138V1.92475Z" fill="#1665BF"/>
<path d="M122.132 1.9248V12.1381L147.965 114.473V104.26L122.132 1.9248Z" fill="#51E0AB"/>
<path d="M86.6787 9.74805V19.9613L147.965 114.473V104.26L86.6787 9.74805Z" fill="#E6D94A"/>
<path d="M104.123 5.0281C110.348 3.65683 115.709 2.73286 122.129 1.9248V12.1381C115.709 12.9461 110.348 13.8701 104.123 15.2414V5.0281Z" fill="#51E0AB"/>
<path d="M104.123 5.02832V15.2416L147.964 114.473V104.26L104.123 5.02832Z" fill="#E6D94A"/>
<path d="M55.2451 23.5234V33.7367L147.969 114.473V104.26L55.2451 23.5234Z" fill="#E67D3C"/>
<path d="M86.6787 9.74805C92.6549 7.81584 97.8492 6.41052 104.124 5.02832V15.2416C97.8492 16.6238 92.6549 18.0291 86.6787 19.9613V9.74805Z" fill="#E6D94A"/>
<path d="M86.6787 9.74805V19.9613L147.966 114.473V104.26L86.6787 9.74805Z" fill="#E67D3C"/>
<path d="M1.70215 92.4966V102.71L147.968 114.473V104.26L1.70215 92.4966Z" fill="#4BCC59"/>
<path d="M55.2451 23.523C65.3753 17.7221 74.8231 13.5823 86.6817 9.74805V19.9613C74.8231 23.7955 65.3753 27.9354 55.2451 33.7363V23.523Z" fill="#E67D3C"/>
<path d="M55.2412 23.5244V33.7377L147.967 114.474V104.26L55.2412 23.5244Z" fill="#4BCC59"/>
<path d="M32.9971 169.184V179.398L147.963 114.474V104.26L32.9971 169.184Z" fill="#0BB2CC"/>
<path d="M1.70215 92.497C6.24732 64.3185 24.047 41.3883 55.2423 23.5244V33.7377C24.047 51.6015 6.24732 74.5318 1.70215 102.71V92.497Z" fill="#4BCC59"/>
<path d="M147.934 0.311523V10.5248L147.964 114.473V104.26L147.934 0.311523Z" fill="#379B19"/>
<path d="M200.624 201.331V211.544L147.966 114.474V104.26L200.624 201.331Z" fill="#D43D02"/>
<path d="M147.934 0.311526C226.296 0.300256 290.471 43.0939 294.936 98.337V108.55C290.471 53.3072 226.296 10.5135 147.934 10.5248V0.311526Z" fill="#379B19"/>
<path d="M1.70215 92.4976V102.711L147.968 114.473V104.26L1.70215 92.4976Z" fill="#0BB2CC"/>
<path d="M200.622 201.331V211.545L147.966 114.474V104.26L200.622 201.331Z" fill="#C4C600"/>
<path d="M32.9989 169.184C11.191 149.929 0.753906 128.915 0.753906 104.26V114.473C0.753906 110.329 1.03524 106.829 1.69938 102.711V92.4976C1.03524 96.6154 0.753906 100.115 0.753906 104.26V114.473C0.753906 139.128 11.191 160.143 32.9989 179.397V169.184Z" fill="#1C6772"/>
<path d="M294.938 98.3384V108.552L147.966 114.473V104.26L294.938 98.3384Z" fill="#D43D02"/>
<path d="M33.0039 169.185V179.398L147.969 114.474V104.26L33.0039 169.185Z" fill="#C4C600"/>
<path d="M295.176 104.26C295.176 148.3 258.864 185.578 200.622 201.331V211.544C258.864 195.791 295.176 158.513 295.176 114.474V104.26Z" fill="#D08095"/>
<path d="M200.626 201.331C139.628 217.829 73.8014 205.204 33.0039 169.185V179.398C73.8014 215.418 139.628 228.042 200.626 211.544V201.331Z" fill="#619DAF"/>
<path d="M147.938 0.311526C226.301 0.300256 290.476 43.0939 294.941 98.337L147.968 104.26L147.938 0.311526Z" fill="#E0BF78"/>
<path d="M294.939 98.3389C298.66 144.387 261.622 184.833 200.625 201.331L147.967 104.261L294.939 98.3389Z" fill="#DAA9B6"/>
<path d="M200.619 201.331C139.621 217.829 73.7945 205.205 32.9971 169.185L147.962 104.26L200.619 201.331Z" fill="#89C9DC"/>
<path d="M32.9992 169.184C7.52548 146.693 -2.91531 121.112 1.69974 92.4976L147.966 104.26L32.9992 169.184Z" fill="#40748F"/>
<path d="M1.7002 92.4971C6.24537 64.3185 24.045 41.3883 55.2404 23.5244L147.966 104.26L1.7002 92.4971Z" fill="#9DD2C5"/>
<path d="M55.2412 23.5245C65.3715 17.7236 74.8192 13.5837 86.6779 9.74951L147.965 104.261L55.2412 23.5245Z" fill="#6CA299"/>
<path d="M86.6787 9.74804C92.6549 7.81584 97.8492 6.41052 104.124 5.02832L147.965 104.26L86.6787 9.74804Z" fill="#6CA299"/>
<path d="M104.13 5.02712C110.355 3.65585 115.716 2.73188 122.136 1.92383L147.97 104.259L104.13 5.02712Z" fill="#6CA299"/>
<path d="M122.134 1.92524C126.923 1.32246 131.001 0.94777 135.849 0.665039L147.966 104.261L122.134 1.92524Z" fill="#B89159"/>
<path d="M135.851 0.664115C140.08 0.417511 143.663 0.312719 147.907 0.311523L147.965 104.26L135.851 0.664115Z" fill="#B89159"/>
</svg>
