<svg width="34" height="35" viewBox="0 0 34 35" fill="none" xmlns="http://www.w3.org/2000/svg">
<path fill-rule="evenodd" clip-rule="evenodd" d="M33.0231 13.0739C31.9549 6.4995 26.3707 1.60849 19.7129 1.41596C19.3963 1.40355 19.0878 1.51752 18.8554 1.73275C18.6229 1.94799 18.4856 2.24682 18.4736 2.56339V2.56339V2.67049L19.2233 13.8848C19.2725 14.6397 19.9215 15.2135 20.6767 15.1699L31.9216 14.4202C32.2384 14.3968 32.5329 14.248 32.7396 14.0068C32.9464 13.7655 33.0484 13.4518 33.0231 13.1351V13.0739Z" stroke="#F27F16" stroke-width="1.82338" stroke-linecap="round" stroke-linejoin="round"/>
<path d="M11.9255 8.08641C12.6408 7.92095 13.3728 8.28694 13.6696 8.95846C13.7474 9.1164 13.7941 9.28778 13.8073 9.46333C13.9603 11.6358 14.2816 16.3938 14.4652 18.9641C14.4965 19.4271 14.7111 19.8585 15.0614 20.1629C15.4117 20.4672 15.8688 20.6194 16.3317 20.5858V20.5858L25.7712 20.0044C26.1926 19.9791 26.6058 20.129 26.9129 20.4187C27.22 20.7084 27.3937 21.1122 27.3929 21.5343V21.5343C27.0104 27.2346 22.915 31.9999 17.3371 33.2351C11.7592 34.4703 6.03484 31.8795 3.2815 26.8738C2.45957 25.433 1.93906 23.8403 1.75158 22.1922C1.67143 21.6864 1.64069 21.174 1.65979 20.6623C1.67602 14.575 5.9512 9.32989 11.9102 8.08641" stroke="#F27F16" stroke-width="1.82338" stroke-linecap="round" stroke-linejoin="round"/>
</svg>
