<svg width="189" height="44" viewBox="0 0 189 44" fill="none" xmlns="http://www.w3.org/2000/svg">
<path d="M72.4978 29.4785H75.355L69.4263 12.9069H66.2834L60.3548 29.4785H63.1882L64.3787 26.0975H71.3073L72.4978 29.4785ZM70.5454 23.8832H65.1406L67.8549 16.1927L70.5454 23.8832ZM76.3851 16.3593L81.3613 29.4785H84.5995L89.5995 16.3593H86.7185L83.0042 27.0499L79.2899 16.3593H76.3851ZM90.7465 22.8594C90.7465 26.9071 93.4846 29.6928 96.8894 29.6928C99.0799 29.6928 100.651 28.6452 101.485 27.5261V29.4785H104.223V16.3593H101.485V18.2641C100.675 17.1927 99.1513 16.1451 96.937 16.1451C93.4846 16.1451 90.7465 18.8117 90.7465 22.8594ZM101.485 22.907C101.485 25.7404 99.5561 27.3356 97.5085 27.3356C95.4846 27.3356 93.5322 25.6928 93.5322 22.8594C93.5322 20.026 95.4846 18.5022 97.5085 18.5022C99.5561 18.5022 101.485 20.0975 101.485 22.907ZM107.788 29.4785H110.502V11.8593H107.788V29.4785ZM113.161 22.8594C113.161 26.9071 115.899 29.6928 119.304 29.6928C121.495 29.6928 123.066 28.6452 123.899 27.5261V29.4785H126.637V16.3593H123.899V18.2641C123.09 17.1927 121.566 16.1451 119.352 16.1451C115.899 16.1451 113.161 18.8117 113.161 22.8594ZM123.899 22.907C123.899 25.7404 121.971 27.3356 119.923 27.3356C117.899 27.3356 115.947 25.6928 115.947 22.8594C115.947 20.026 117.899 18.5022 119.923 18.5022C121.971 18.5022 123.899 20.0975 123.899 22.907ZM139.512 29.4785H142.203V21.7403C142.203 18.0736 139.893 16.1451 136.822 16.1451C135.25 16.1451 133.798 16.7879 132.917 17.8594V16.3593H130.203V29.4785H132.917V22.1451C132.917 19.7403 134.226 18.5022 136.226 18.5022C138.203 18.5022 139.512 19.7403 139.512 22.1451V29.4785ZM144.76 22.907C144.76 27.0261 147.427 29.6928 151.189 29.6928C154.403 29.6928 156.498 27.9071 157.237 25.3356H154.308C153.808 26.6928 152.808 27.4071 151.189 27.4071C148.998 27.4071 147.546 25.788 147.546 22.907C147.546 20.0499 148.998 18.4308 151.189 18.4308C152.808 18.4308 153.856 19.2403 154.308 20.5022H157.237C156.498 17.7403 154.403 16.1451 151.189 16.1451C147.427 16.1451 144.76 18.8117 144.76 22.907ZM159.942 29.4785H162.656V22.1451C162.656 19.7403 163.965 18.5022 165.965 18.5022C167.942 18.5022 169.251 19.7403 169.251 22.1451V29.4785H171.942V21.7403C171.942 18.0736 169.656 16.1451 166.727 16.1451C165.037 16.1451 163.561 16.7879 162.656 17.8832V11.8593H159.942V29.4785ZM180.928 18.4308C182.952 18.4308 184.547 19.7165 184.594 21.7403H177.333C177.618 19.6689 179.094 18.4308 180.928 18.4308ZM187.071 25.5737H184.142C183.642 26.5975 182.714 27.4071 181.047 27.4071C179.047 27.4071 177.499 26.0975 177.309 23.9308H187.333C187.404 23.4785 187.428 23.0499 187.428 22.5975C187.428 18.7403 184.785 16.1451 181.047 16.1451C177.166 16.1451 174.499 18.7879 174.499 22.907C174.499 27.0261 177.285 29.6928 181.047 29.6928C184.261 29.6928 186.333 27.8595 187.071 25.5737Z" fill="#353945"/>
<path fill-rule="evenodd" clip-rule="evenodd" d="M21.8704 0.904132C21.7579 0.907276 21.4914 0.920003 21.2782 0.932407C16.6341 1.20273 12.2449 2.94699 8.65839 5.94748C8.05994 6.44814 7.18366 7.28812 6.64499 7.87743C3.89953 10.8811 2.06623 14.5717 1.33732 18.5624C0.767834 21.6802 0.897607 24.917 1.71449 27.9698C2.58737 31.2319 4.18951 34.2054 6.44811 36.7553C6.77095 37.1197 7.82673 38.1757 8.18461 38.4921C9.95184 40.0545 11.9133 41.3021 14.0207 42.2041C18.0718 43.9381 22.5458 44.3958 26.8323 43.5149C30.0951 42.8443 33.1409 41.4396 35.7609 39.3969C36.9327 38.4833 38.0781 37.3747 39.0359 36.227C40.324 34.6836 41.3894 32.9748 42.1872 31.1722C44.091 26.8712 44.5442 22.1351 43.4888 17.568C42.7827 14.5117 41.3998 11.6172 39.4664 9.14797C38.917 8.44642 38.478 7.95457 37.7539 7.22952C36.9812 6.45578 36.4713 6.001 35.7453 5.43813C31.7626 2.35005 26.9069 0.763317 21.8704 0.904132ZM22.8488 6.37677C22.9191 6.4024 23.0303 6.45494 23.0959 6.49358C23.2575 6.58874 23.5629 6.89412 23.6939 7.09142C23.7529 7.18025 24.0372 7.67931 24.3256 8.20045C24.6141 8.72159 25.402 10.117 26.0766 11.3014C26.7512 12.4858 27.3349 13.5289 27.3737 13.6193C27.5313 13.9861 27.6537 14.4455 27.7056 14.8648C27.7344 15.0979 27.7346 15.6419 27.706 15.8781C27.6527 16.3182 27.5216 16.808 27.3616 17.1644C27.2585 17.3942 19.1251 31.4792 18.9619 31.7108C18.7989 31.9419 18.4218 32.3413 18.1899 32.5283C17.5646 33.0326 16.8089 33.3559 16.0162 33.4584C15.7824 33.4887 15.3336 33.4928 12.2905 33.4926C10.0817 33.4925 8.7606 33.4845 8.63686 33.4705C8.35866 33.439 8.18997 33.3933 7.9676 33.2891C7.26377 32.9595 7.06119 32.2102 7.44973 31.3738C7.4888 31.2897 9.51036 27.7178 11.9421 23.4361C14.3738 19.1545 17.4391 13.7569 18.754 11.4414C20.0688 9.1259 21.1737 7.18779 21.2094 7.13449C21.4858 6.72161 21.8207 6.44586 22.1653 6.34736C22.3222 6.3025 22.6883 6.31826 22.8488 6.37677ZM31.8672 22.0858C31.9465 22.1163 32.0676 22.177 32.1364 22.2208C32.3081 22.33 32.5834 22.6152 32.717 22.8224C32.8796 23.0743 37.5 31.1934 37.5835 31.3738C37.8902 32.0363 37.8359 32.6288 37.4317 33.0307C37.1847 33.2762 36.8469 33.4199 36.3997 33.4698C36.1119 33.5019 26.731 33.5019 26.4432 33.4698C25.6582 33.3823 25.1661 32.9752 25.0779 32.3405C25.0368 32.0455 25.1211 31.6419 25.2969 31.292C25.4019 31.0827 30.1167 22.9529 30.2314 22.7831C30.4749 22.4228 30.8302 22.1442 31.1738 22.0443C31.3348 21.9975 31.6931 22.019 31.8672 22.0858Z" fill="#353945"/>
</svg>
