<svg width="180" height="41" viewBox="0 0 180 41" fill="none" xmlns="http://www.w3.org/2000/svg">
<path d="M66.8683 15.0865V15.034C66.8683 12.5742 65.5188 11.3446 63.3321 10.5334C64.6816 9.8007 65.8157 8.64938 65.8157 6.58215V6.52998C65.8157 3.65151 63.4401 1.79361 59.5798 1.79361H50.8065V20.1104H59.7959C64.0609 20.1104 66.8683 18.4358 66.8683 15.0865ZM61.6853 7.26264C61.6853 8.62329 60.5244 9.19879 58.689 9.19879H54.8558V5.32616H58.9588C60.7136 5.32616 61.6853 6.00665 61.6853 7.21047V7.26264ZM62.7382 14.5892C62.7382 15.9499 61.6313 16.5779 59.7958 16.5779H54.8558V12.5484H59.6607C61.7933 12.5484 62.7382 13.3072 62.7382 14.5367V14.5892ZM75.5862 20.1104V1.79361H71.4289V20.1104H75.5862ZM97.933 20.1104V1.79361H93.8299V13.0718L84.9754 1.79361H81.1423V20.1104H85.2455V8.46613L94.397 20.1104H97.933ZM120.961 20.1104L112.863 1.66286H109.029L100.931 20.1104H105.169L106.897 16.0024H114.887L116.615 20.1104H120.961ZM113.402 12.4434H108.382L110.892 6.50357L113.402 12.4434ZM140.777 20.1104V1.79361H136.673V13.0718L127.819 1.79361H123.986V20.1104H128.089V8.46613L137.241 20.1104H140.777ZM162.239 17.1537L159.594 14.5632C158.109 15.8716 156.786 16.709 154.627 16.709C151.387 16.709 149.146 14.0923 149.146 10.952V10.8999C149.146 7.75956 151.441 5.19541 154.627 5.19541C156.516 5.19541 158.001 5.98024 159.459 7.26264L162.104 4.30559C160.349 2.63093 158.216 1.47961 154.654 1.47961C148.849 1.47961 144.8 5.74482 144.8 10.952V11.0042C144.8 16.2639 148.931 20.4244 154.491 20.4244C158.136 20.4244 160.295 19.1688 162.239 17.1537ZM179.976 20.1104V16.5257H169.718V12.6792H178.626V9.09413H169.718V5.37865H179.841V1.79361H165.588V20.1104H179.976Z" fill="#F3BA2F"/>
<path d="M52.5843 29.9147C52.5843 29.0714 53.3183 28.4077 54.5767 28.4077C55.6952 28.4077 56.7962 28.8562 57.8972 29.6995L59.0507 28.031C57.8099 27.0084 56.3943 26.4521 54.6116 26.4521C52.1823 26.4521 50.4347 27.9232 50.4347 30.1121C50.4347 32.4443 51.9027 33.2336 54.5068 33.8795C56.7787 34.4176 57.2681 34.9021 57.2681 35.8169C57.2681 36.7858 56.4292 37.4135 55.101 37.4135C53.5805 37.4135 52.4095 36.8217 51.2386 35.781L49.9453 37.3598C51.4134 38.7054 53.1785 39.3691 55.0485 39.3691C57.6176 39.3691 59.4177 37.9698 59.4177 35.6017C59.4177 33.5028 58.072 32.5517 55.4854 31.9062C53.1436 31.3321 52.5843 30.9014 52.5843 29.9147Z" fill="#F3BA2F"/>
<path d="M71.9019 29.8623V38.5079H74.0573V26.4521H71.7617L68.0293 32.1528L64.297 26.4521H62.0015V38.5079H64.1217V29.8964L67.9593 35.5455H68.0293L71.9019 29.8623Z" fill="#F3BA2F"/>
<path d="M84.1075 26.4521H82.0905L76.6406 38.5079H78.8701L80.1441 35.6181H86.0008L87.2573 38.5079H89.5576L84.1075 26.4521ZM85.2048 33.7541H80.9403L83.0636 28.966L85.2048 33.7541Z" fill="#F3BA2F"/>
<path d="M102.474 38.5079L99.1862 33.944C100.891 33.479 102.091 32.2733 102.091 30.2754C102.091 27.916 100.369 26.4521 97.5683 26.4521H92.1406V38.5079H94.2804V34.3056H96.9596L99.9516 38.5079H102.474ZM99.9171 30.396C99.9171 31.6361 98.9427 32.4283 97.4117 32.4283H94.2804V28.381H97.3945C98.9776 28.381 99.9171 29.0698 99.9171 30.396Z" fill="#F3BA2F"/>
<path d="M110.492 28.4155H114.53V26.4521H104.197V28.4155H108.235V38.5079H110.492V28.4155Z" fill="#F3BA2F"/>
<path d="M132.614 37.0093L131.232 35.4869C130.182 36.5524 129.22 37.2187 127.716 37.2187C125.372 37.2187 123.675 35.087 123.675 32.461C123.675 29.8346 125.372 27.7414 127.716 27.7414C129.115 27.7414 130.165 28.4073 131.144 29.397L132.526 27.6652C131.354 26.4473 129.99 25.5908 127.734 25.5908C124.025 25.5908 121.419 28.6929 121.419 32.4991C121.419 36.343 124.078 39.3689 127.646 39.3689C129.937 39.3689 131.337 38.4554 132.614 37.0093Z" fill="#F3BA2F"/>
<path d="M143.339 33.4271V38.5079H145.531V26.4521H143.339V31.4637H137.389V26.4521H135.197V38.5079H137.389V33.4271H143.339Z" fill="#F3BA2F"/>
<path d="M155.581 26.4521H153.564L148.114 38.5079H150.344L151.618 35.6181H157.475L158.731 38.5079H161.031L155.581 26.4521ZM156.678 33.7541H152.414L154.537 28.966L156.678 33.7541Z" fill="#F3BA2F"/>
<path d="M163.614 26.4521V38.5079H165.337V26.4521H163.614Z" fill="#F3BA2F"/>
<path d="M177.755 34.7878L170.873 26.4521H168.781V38.5079H171.002V29.9309L178.086 38.5079H179.976V26.4521H177.755V34.7878Z" fill="#F3BA2F"/>
<path d="M8.94487 20.4241L4.47243 24.8965L0 20.4241L4.47243 15.9518L8.94487 20.4241ZM19.806 9.56278L27.473 17.2296L31.9451 12.7573L19.806 0.618164L7.66707 12.7573L12.1392 17.2296L19.806 9.56278ZM35.1398 15.9518L30.6674 20.4241L35.1398 24.8964L39.6119 20.4241L35.1398 15.9518ZM19.806 31.2854L12.1392 23.6186L7.66707 28.0909L19.806 40.2301L31.9451 28.0909L27.473 23.6186L19.806 31.2854ZM19.806 24.8965L24.2784 20.4241L19.806 15.9518L15.3338 20.4241L19.806 24.8965Z" fill="#F3BA2F"/>
</svg>
