<svg width="213" height="44" viewBox="0 0 213 44" fill="none" xmlns="http://www.w3.org/2000/svg">
<path fill-rule="evenodd" clip-rule="evenodd" d="M22.4239 1.40127C21.5499 2.35352 22.7102 3.86845 23.8519 3.26589C24.9784 2.67172 24.5931 0.895508 23.3378 0.895508C23.0904 0.895508 22.6793 1.12321 22.4239 1.40127ZM11.4673 2.58541C11.1786 3.32675 11.492 3.91095 12.2229 3.99437C12.8027 4.06047 12.9756 3.94846 13.1102 3.41909C13.2023 3.05734 13.1993 2.63683 13.1038 2.48442C12.8463 2.07362 11.6373 2.14812 11.4673 2.58541ZM33.6378 2.37004C32.9825 3.01589 33.8605 4.19951 34.7811 3.91147C35.6295 3.646 35.4132 2.36532 34.5025 2.26065C34.1311 2.21789 33.7418 2.26721 33.6378 2.37004ZM31.0536 6.58641C29.4591 7.14832 29.8379 9.55227 31.521 9.55227C32.8686 9.55227 33.4452 7.58666 32.3245 6.8128C31.6929 6.37629 31.6642 6.37131 31.0536 6.58641ZM14.0789 6.98148C13.6269 7.42717 13.683 8.65223 14.1777 9.14016C15.4353 10.3802 17.273 8.76241 16.411 7.17402C16.0951 6.59245 14.5988 6.46889 14.0789 6.98148ZM22.6235 7.98015C21.3921 8.46939 21.1564 9.78601 22.1286 10.7445C22.9861 11.5903 23.9511 11.5722 24.6487 10.6973C25.3729 9.78968 25.345 9.14646 24.5471 8.36C23.8516 7.67402 23.5462 7.61368 22.6235 7.98015ZM5.11751 11.2902C4.2004 12.1944 5.27794 13.6795 6.50953 13.2083C6.9347 13.0457 7.10817 12.7642 7.10817 12.2364C7.10817 10.9434 6.00242 10.4177 5.11751 11.2902ZM39.8868 11.1787C39.7112 11.3518 39.5675 11.7414 39.5675 12.0444C39.5675 12.3474 39.7112 12.7369 39.8868 12.9101C40.6331 13.6459 41.962 13.0916 41.962 12.0444C41.962 11.3413 41.4778 10.8639 40.7648 10.8639C40.4575 10.8639 40.0624 11.0056 39.8868 11.1787ZM61.5174 12.0042C58.3857 13.0208 56.5216 15.0257 55.6258 18.3402C55.1693 20.0296 55.1698 24.2612 55.6266 25.9477C56.4416 28.955 58.3511 31.142 60.9398 32.0326C62.8392 32.686 67.371 32.6889 69.2622 32.0378C72.0005 31.0956 74.1468 28.3884 74.1526 25.87L74.1553 24.7433L72.3668 24.8207L70.5787 24.8984L70.3541 26.0216C69.8978 28.3052 67.4328 29.7178 64.4356 29.4127C62.1765 29.1829 60.8661 28.3361 59.9397 26.508C59.2235 25.0948 59.1604 24.7431 59.1628 22.1796C59.1657 19.2822 59.6423 17.5608 60.7959 16.2796C61.6044 15.3822 63.2684 14.8106 65.0917 14.8046C68.0442 14.7946 69.8433 16.0826 70.3046 18.5369L70.4898 19.5207H72.3224H74.1553L74.1526 18.4058C74.1494 17.0055 73.1695 14.9289 71.9928 13.8285C70.3836 12.3235 68.8056 11.8133 65.5083 11.7314C63.6129 11.6842 62.2068 11.7805 61.5174 12.0042ZM198.571 12.0803C193.843 13.5118 191.655 17.7654 192.34 24.1927C192.744 27.9833 194.649 30.648 197.852 31.9025C199.095 32.3893 199.856 32.4841 202.529 32.4841C206.205 32.4841 207.886 32.0001 209.789 30.3941C211.911 28.6032 213.323 24.3024 212.917 20.8622C212.164 14.4672 208.921 11.6231 202.435 11.6692C200.965 11.6797 199.314 11.8552 198.571 12.0803ZM84.5537 12.4935C81.2836 20.7221 76.8159 32.1157 76.8159 32.2272C76.8159 32.3083 77.6838 32.3741 78.7448 32.3736L80.6738 32.3726L81.4746 30.2094L82.2754 28.0463L87.0656 27.9749L91.856 27.9038L92.6744 30.0735L93.4928 32.2435L95.5306 32.3201C96.6515 32.3623 97.5649 32.3033 97.5603 32.1889C97.5555 32.0746 95.7775 27.4954 93.6088 22.0128L89.6658 12.0444L87.229 11.9688C84.9033 11.8969 84.7812 11.9208 84.5537 12.4935ZM101.559 22.1277V32.3747H103.422H105.284V28.4398V24.5049H108.551H111.817L113.798 28.4398L115.78 32.3747H117.85H119.921L117.759 28.1187C115.754 24.1699 115.634 23.8433 116.095 23.5936C117.109 23.0445 118.569 21.3318 118.839 20.3759C119.244 18.9346 119.181 16.5005 118.708 15.3843C118.181 14.1409 117.396 13.318 116.06 12.6092C115.064 12.0811 114.56 12.0391 108.277 11.9625L101.559 11.8804V22.1277ZM124.441 22.1704V32.4277L129.961 32.3167C134.37 32.228 135.746 32.1121 136.79 31.7404C140.852 30.2952 142.657 27.3435 142.659 22.1439C142.66 17.638 141.454 15.0136 138.608 13.3287C136.672 12.1831 134.901 11.9132 129.318 11.9132H124.441V22.1704ZM152.669 12.4935C152.54 12.8237 150.746 17.3851 148.681 22.6303C146.616 27.8755 144.927 32.2139 144.927 32.2708C144.927 32.328 145.801 32.3747 146.869 32.3747H148.81L149.598 30.2105L150.387 28.0463L155.203 27.9749L160.019 27.9036L160.817 30.0735L161.616 32.2435L163.648 32.3201C164.765 32.3623 165.678 32.3033 165.676 32.1889C165.674 32.0746 163.899 27.4954 161.733 22.0128L157.793 12.0444L155.348 11.9688C153.013 11.8969 152.893 11.9203 152.669 12.4935ZM169.671 22.1439V32.3747H171.533H173.396V25.4073V18.4399L176.899 23.2431C178.825 25.8847 181.112 29.0203 181.98 30.2105L183.558 32.3747H185.394H187.231V22.1439V11.9132H185.368H183.506L183.494 18.7993C183.483 25.0164 183.443 25.6344 183.078 25.1607C182.856 24.8721 180.58 21.7735 178.02 18.2746L173.367 11.9132H171.519H169.671V22.1439ZM18.1002 13.2117C17.0226 13.8597 16.6863 14.4887 16.6863 15.857C16.6863 17.3499 18.0238 18.7337 19.4667 18.7337C20.7493 18.7337 21.904 18.1178 22.4021 17.1684C23.8654 14.378 20.8196 11.5769 18.1002 13.2117ZM25.4591 13.1472C24.0056 14.1349 23.5632 15.5249 24.2486 16.9491C25.4695 19.4855 29.0821 19.214 29.9845 16.5178C30.8115 14.0478 27.6257 11.675 25.4591 13.1472ZM11.3502 14.4956C10.651 15.0538 10.5246 16.448 11.1212 17.0239C11.8243 17.7025 12.7989 17.7547 13.5716 17.1555C14.4802 16.4509 14.5243 15.3678 13.6761 14.5821C12.9226 13.8846 12.1516 13.8557 11.3502 14.4956ZM32.9202 14.7219C31.9433 15.9465 32.7029 17.5094 34.275 17.5094C35.907 17.5094 36.6709 15.6734 35.4931 14.5821C34.6409 13.793 33.6171 13.8487 32.9202 14.7219ZM205.889 15.5328C207.88 16.5585 208.83 18.3706 208.994 21.4585C209.212 25.5413 207.774 28.2758 204.979 29.094C201.174 30.2081 197.602 28.7559 196.517 25.6541C196.048 24.3128 196.04 19.9401 196.505 18.6456C197.394 16.1639 199.525 14.8138 202.565 14.8046C204.135 14.7998 204.711 14.926 205.889 15.5328ZM87.8747 17.2253C88.274 18.4155 89.0022 20.4325 89.4929 21.7074C89.9835 22.9821 90.385 24.1922 90.385 24.3963C90.385 24.6961 89.7483 24.7672 87.0592 24.7672C84.8749 24.7672 83.7335 24.6709 83.7335 24.4865C83.7335 24.3323 84.2611 22.768 84.9057 21.0107C85.5507 19.2534 86.2828 17.1959 86.5329 16.4383C86.7828 15.6807 87.0236 15.0611 87.068 15.0611C87.1124 15.0611 87.4753 16.0349 87.8747 17.2253ZM113.798 15.5207C115.094 16.1587 115.658 17.7138 115.11 19.1343C114.389 20.9999 113.764 21.2258 109.323 21.2258H105.417L105.341 18.4892C105.299 16.984 105.325 15.5968 105.399 15.4069C105.622 14.8329 112.594 14.9273 113.798 15.5207ZM134.684 15.3507C136.135 15.7413 137.365 16.7117 138.079 18.0275C138.592 18.9753 138.675 19.5259 138.675 22.0128C138.675 24.5188 138.592 25.0644 138.044 26.1617C137.648 26.9542 137.011 27.6874 136.335 28.1292C135.33 28.7858 135.028 28.839 131.845 28.9196L128.432 29.0061V22.0335V15.0611L131.026 15.0627C132.453 15.0635 134.099 15.1931 134.684 15.3507ZM157.024 20.0173C157.834 22.2381 158.496 24.2155 158.496 24.4112C158.496 24.6919 157.794 24.7672 155.171 24.7672C153.295 24.7672 151.845 24.6607 151.845 24.523C151.845 24.3887 152.563 22.3244 153.441 19.9357C154.319 17.5469 155.046 15.4433 155.056 15.2613C155.081 14.7844 155.374 15.4898 157.024 20.0173ZM14.4948 19.4066C12.49 20.479 12.5225 23.5983 14.5491 24.6316C16.5288 25.641 18.7094 24.6019 18.9936 22.5146C19.3419 19.9522 16.7816 18.1833 14.4948 19.4066ZM29.019 19.5013C27.4724 20.4312 27.2247 22.7022 28.5199 24.0802C30.4017 26.0822 33.7142 24.7344 33.7142 21.9663C33.7142 20.9666 33.5716 20.6392 32.8096 19.8879C31.7381 18.8315 30.3661 18.6915 29.019 19.5013ZM5.92606 21.1531C5.37559 21.928 5.40352 22.4907 6.02052 23.0411C6.74553 23.688 7.93109 23.486 8.41426 22.6332C8.76493 22.0141 8.75827 21.8706 8.34987 21.256C7.76108 20.3696 6.51991 20.3168 5.92606 21.1531ZM38.5126 21.0773C37.6279 22.7071 39.4552 24.3157 40.7459 23.0435C41.2405 22.5555 41.2966 21.3305 40.8446 20.8848C40.3247 20.3722 38.8284 20.4957 38.5126 21.0773ZM0.456137 21.6201C0.227858 22.0408 0.231583 22.2699 0.47077 22.5542C1.17822 23.3947 2.72164 22.5723 2.14349 21.6628C1.71939 20.9955 0.807869 20.9724 0.456137 21.6201ZM44.7248 21.4729C44.4414 22.2009 44.744 22.7998 45.3955 22.7998C46.128 22.7998 46.6447 22.1452 46.4028 21.5238C46.1956 20.9915 44.927 20.9532 44.7248 21.4729ZM17.7383 26.0132C15.6758 27.8304 16.9966 31.3254 19.746 31.3254C21.3458 31.3254 22.8057 29.886 22.8057 28.3086C22.8057 25.7876 19.6282 24.3483 17.7383 26.0132ZM25.337 25.8606C23.6379 27.1782 23.5943 29.297 25.2383 30.6609C26.8025 31.9586 29.0507 31.2996 29.9002 29.2947C30.2796 28.3996 30.2219 27.791 29.6496 26.6468C28.9701 25.2887 26.6255 24.8611 25.337 25.8606ZM11.9047 26.651C11.0669 26.9579 10.8421 27.3175 10.837 28.3592C10.8298 29.8419 12.6773 30.5562 13.7597 29.4891C15.1065 28.1612 13.6916 25.9965 11.9047 26.651ZM33.1672 26.8249C32.3434 27.4825 32.3434 28.8723 33.1672 29.53C33.9523 30.157 34.5424 30.1412 35.4076 29.4699C36.295 28.7821 36.3133 27.8306 35.4555 26.9852C34.6765 26.2168 33.989 26.1688 33.1672 26.8249ZM40.0725 31.0321C39.2958 31.652 39.5457 32.818 40.5062 33.0557C41.4161 33.281 42.0083 32.7377 41.9091 31.7695C41.8032 30.738 40.8967 30.3739 40.0725 31.0321ZM4.9616 31.3584C4.25574 32.659 5.89095 33.7996 6.95625 32.7495C7.48677 32.2262 7.48677 31.7362 6.95625 31.2128C6.35495 30.6202 5.32158 30.6955 4.9616 31.3584ZM22.0538 33.244C21.4198 33.9098 21.3301 34.5024 21.7476 35.2715C22.4271 36.5233 24.1467 36.5081 24.8097 35.2442C25.7686 33.4161 23.4757 31.7519 22.0538 33.244ZM14.2 34.9531C13.4306 35.7912 13.7081 36.9906 14.763 37.3859C15.712 37.7416 16.6863 37.0698 16.6863 36.0598C16.6863 34.6296 15.132 33.9376 14.2 34.9531ZM30.344 35.1593C29.9348 35.7747 29.9284 35.9166 30.2815 36.5365C30.5869 37.0729 30.8788 37.2277 31.5857 37.2277C32.2926 37.2277 32.5845 37.0729 32.8899 36.5365C33.243 35.9166 33.2366 35.7747 32.8274 35.1593C32.5063 34.6758 32.1396 34.4733 31.5857 34.4733C31.0318 34.4733 30.6651 34.6758 30.344 35.1593ZM11.6525 40.3504C11.1063 40.9994 11.553 41.863 12.3857 41.768C12.9777 41.7006 13.0945 41.5577 13.0945 40.9003C13.0945 40.3022 12.9612 40.0944 12.539 40.0351C12.2336 39.9921 11.8347 40.134 11.6525 40.3504ZM33.6955 40.3976C33.4423 40.6988 33.4228 40.9333 33.625 41.2502C34.022 41.8714 34.8173 41.9551 35.2161 41.4173C35.9547 40.4215 34.498 39.4446 33.6955 40.3976ZM22.529 40.9871C21.7181 41.6345 21.9756 42.784 22.9877 43.0345C23.5326 43.1694 23.8048 43.0739 24.181 42.6159C24.7966 41.8661 24.7913 41.6775 24.136 41.0314C23.4807 40.3853 23.2894 40.3801 22.529 40.9871Z" fill="#353945"/>
</svg>
