<svg width="170" height="38" viewBox="0 0 170 38" fill="none" xmlns="http://www.w3.org/2000/svg">
<path d="M66.9809 12.1155C68.0163 12.7415 68.8926 13.6022 69.45 14.7758C70.0872 15.9493 70.4058 17.3578 70.4058 18.9225C70.4058 20.4873 70.0872 21.8174 69.3704 22.991C68.7332 24.1646 67.7773 25.0253 66.5825 25.5728C65.3879 26.1988 63.954 26.5118 62.4408 26.5118C61.5646 26.5118 60.768 26.3553 59.9715 26.0424C59.1749 25.8077 58.4581 25.3381 57.9005 24.7906V32.9275H53.2808V11.4896H57.2633L57.6617 13.2111C59.4139 11.8026 61.3256 11.0985 63.3168 11.0985C64.6709 11.0985 65.9453 11.4115 66.9809 12.1155ZM64.432 21.8174C65.2285 21.1133 65.6267 20.1743 65.6267 19.0007C65.6267 17.8272 65.2285 16.8883 64.5117 16.1059C63.7948 15.3235 62.839 15.0105 61.8036 15.0105C60.9274 15.0105 60.1308 15.1671 59.4935 15.5582C58.8563 15.8712 58.3785 16.4188 57.9803 17.1231V20.6437C58.2191 21.348 58.6971 21.8956 59.2547 22.2869C59.8919 22.678 60.6087 22.9127 61.485 22.9127C62.6796 22.9127 63.6354 22.5216 64.432 21.8174ZM73.1137 14.8524C73.8307 13.757 74.7864 12.8181 76.0608 12.1921C77.3353 11.5663 78.7691 11.1752 80.3621 11.1752C81.9552 11.1752 83.3888 11.4882 84.6632 12.1921C85.8581 12.8181 86.8139 13.757 87.5307 14.9307C88.2475 16.1043 88.5661 17.3561 88.5661 18.8427C88.5661 20.3292 88.2475 21.5811 87.5307 22.7546C86.8139 23.9282 85.9377 24.8671 84.6632 25.4931C83.4684 26.1189 81.9552 26.5102 80.3621 26.5102C78.7691 26.5102 77.3353 26.1972 76.0608 25.5714C74.7864 24.9453 73.8307 24.0848 73.1137 22.9111C72.4765 21.7375 72.0783 20.4074 72.0783 18.8427C72.0783 17.3561 72.4765 16.026 73.1137 14.8524ZM77.8132 21.6592C78.4505 22.4416 79.3267 22.7546 80.3621 22.7546C81.3975 22.7546 82.2738 22.3635 82.911 21.6592C83.5482 20.9551 83.8668 19.9379 83.8668 18.8427C83.8668 17.6691 83.5482 16.7301 82.911 16.026C82.194 15.2435 81.3975 14.8524 80.2825 14.8524C79.2469 14.8524 78.4505 15.2435 77.7336 15.9477C77.0964 16.7301 76.7778 17.6691 76.7778 18.8427C76.7778 19.9379 77.0964 20.877 77.8132 21.6592ZM96.0542 0.378906V26.1199H91.4344V0.378906H96.0542ZM115.011 11.8798L105.612 33.0047H101.151L104.656 25.4154L97.9653 11.8799H103.222L107.046 20.3297L110.869 11.8798H115.011ZM132.693 11.8793V26.1189C132.693 27.449 132.294 28.7009 131.498 29.7963C130.701 30.8916 129.666 31.7523 128.312 32.3782C126.958 33.0042 125.524 33.317 123.931 33.317C122.736 33.317 121.701 33.1606 120.825 32.9259C119.948 32.6129 119.231 32.2999 118.674 31.987C118.037 31.5957 117.4 31.1263 116.683 30.5005L119.391 27.3708C120.028 27.9968 120.745 28.4662 121.382 28.7792C122.019 29.092 122.896 29.3267 123.851 29.3267C125.046 29.3267 126.002 29.0139 126.798 28.4662C127.595 27.9185 127.993 27.0579 127.993 26.0408V24.0065C127.515 24.7106 126.878 25.3366 125.922 25.8061C124.966 26.2755 123.851 26.5102 122.577 26.5102C121.302 26.5102 120.028 26.1972 118.913 25.4931C117.798 24.8671 116.922 23.9282 116.205 22.7546C115.568 21.5811 115.169 20.3292 115.169 18.921C115.169 17.5125 115.488 16.1826 116.205 15.0088C116.922 13.8353 117.798 12.8964 118.992 12.1923C120.108 11.4882 121.302 11.1752 122.577 11.1752C123.772 11.1752 124.807 11.3317 125.763 11.6446C126.719 11.9576 127.436 12.427 127.913 12.9747L128.391 11.8793H132.693ZM127.993 20.6422V17.1214C127.674 16.4173 127.197 15.8696 126.48 15.4783C125.763 15.0871 124.966 14.8524 124.011 14.8524C122.896 14.8524 121.94 15.2435 121.143 15.9477C120.347 16.652 119.948 17.5908 119.948 18.7644C119.948 19.8598 120.347 20.877 121.143 21.6592C121.94 22.4416 122.896 22.8329 124.011 22.8329C125.843 22.7546 127.197 22.0505 127.993 20.6422ZM136.517 14.8541C137.234 13.6805 138.19 12.8198 139.464 12.1156C140.739 11.4896 142.173 11.0985 143.766 11.0985C145.359 11.0985 146.792 11.4115 148.067 12.1155C149.262 12.7415 150.217 13.6805 150.934 14.8541C151.571 16.0276 151.97 17.2795 151.97 18.766C151.97 20.2526 151.651 21.5044 150.934 22.678C150.297 23.8516 149.341 24.7906 148.067 25.4164C146.872 26.0424 145.359 26.4336 143.766 26.4336C142.173 26.4336 140.739 26.1206 139.464 25.4947C138.19 24.8687 137.234 24.0081 136.517 22.8346C135.8 21.6609 135.482 20.3309 135.482 18.6877C135.482 17.3578 135.8 16.0276 136.517 14.8539V14.8541ZM141.137 21.6609C141.774 22.4433 142.65 22.7563 143.686 22.7563C144.721 22.7563 145.597 22.365 146.235 21.6609C146.872 20.9567 147.19 19.9396 147.19 18.8443C147.19 17.6706 146.872 16.7318 146.235 16.0276C145.597 15.3235 144.721 14.9324 143.686 14.9324C142.65 14.9324 141.854 15.3235 141.137 16.0276C140.42 16.7318 140.102 17.7489 140.102 18.8443C140.181 19.9396 140.5 20.8784 141.137 21.6609ZM168.299 12.3487C169.255 13.1311 169.652 14.1483 169.731 15.4001V26.1189H165.032V17.1214C164.953 15.7131 164.236 15.0088 162.882 15.0088C161.846 15.0088 160.97 15.4783 160.333 16.4956C159.696 17.5125 159.377 18.7644 159.377 20.2509V26.1189H154.757V11.8793H158.979L159.297 14.1483C159.855 13.2094 160.572 12.5051 161.528 11.9576C162.484 11.4099 163.599 11.1752 164.873 11.1752C166.227 11.1752 167.422 11.5663 168.299 12.3487Z" fill="#353945"/>
<path d="M33.5272 11.6475C32.7306 11.1781 31.6951 11.1781 30.8191 11.6475L24.6061 15.2465L20.3846 17.5938L14.1719 21.1927C13.3754 21.6622 12.3398 21.6622 11.4638 21.1927L6.52526 18.376C5.72883 17.9066 5.17122 17.0461 5.17122 16.1072V10.5521C5.17122 9.61324 5.64922 8.75252 6.52526 8.2831L11.384 5.54468C12.1806 5.07526 13.216 5.07526 14.0921 5.54468L18.951 8.2831C19.7474 8.75252 20.305 9.61324 20.305 10.5521V14.1512L24.5265 11.7256V8.12668C24.5265 7.18783 24.0487 6.32711 23.1725 5.85769L14.1719 0.693865C13.3754 0.224441 12.3398 0.224441 11.4638 0.693865L2.30375 5.85785C1.4277 6.32695 0.949707 7.18767 0.949707 8.12651V18.5325C0.949707 19.4713 1.4277 20.332 2.30375 20.8014L11.4638 25.9653C12.2602 26.4347 13.2956 26.4347 14.1719 25.9653L20.3846 22.4444L24.6061 20.019L30.8191 16.4983C31.6155 16.0287 32.651 16.0287 33.5272 16.4983L38.3859 19.2366C39.1823 19.706 39.7399 20.5667 39.7399 21.5056V27.0605C39.7399 27.9995 39.2621 28.8601 38.3859 29.3295L33.5272 32.1462C32.7306 32.6157 31.6951 32.6157 30.8191 32.1462L25.9604 29.4078C25.1637 28.9384 24.6061 28.0777 24.6061 27.1388V23.5399L20.3846 25.9653V29.5642C20.3846 30.5031 20.8626 31.3638 21.7387 31.8332L30.8987 36.997C31.6951 37.4665 32.7306 37.4665 33.6068 36.997L42.7668 31.8332C43.5632 31.3638 44.1208 30.5031 44.1208 29.5642V19.1583C44.1208 18.2194 43.6428 17.3589 42.7668 16.8895L33.5272 11.6474V11.6475Z" fill="#353945"/>
</svg>
