<svg width="41" height="39" viewBox="0 0 41 39" fill="none" xmlns="http://www.w3.org/2000/svg">
<g clip-path="url(#clip0_104_7062)">
<ellipse cx="20.148" cy="19.4152" rx="20.0289" ry="18.634" fill="#F3BA2F"/>
<path d="M14.9612 17.4324L20.1475 12.6072L25.3363 17.4345L28.354 14.6269L20.1475 6.99219L11.9437 14.6247L14.9613 17.4322L14.9612 17.4324ZM6.79492 19.4148L9.81272 16.6068L12.8303 19.4142L9.8125 22.2218L6.79492 19.4148ZM14.9612 21.3976L20.1475 26.2224L25.3362 21.3953L28.3555 24.2013L28.354 24.2028L20.1475 31.8375L11.9437 24.205L11.9394 24.201L14.9615 21.3973L14.9612 21.3976ZM27.4647 19.416L30.4825 16.6084L33.5001 19.4158L30.4824 22.2234L27.4647 19.416Z" fill="white"/>
<path d="M23.2083 19.4134H23.2096L20.1477 16.5645L17.8845 18.6695L17.6245 18.9115L17.0883 19.4105L17.084 19.4144L17.0883 19.4184L20.1477 22.2653L23.2098 19.4164L23.2113 19.4148L23.2086 19.4134" fill="white"/>
</g>
<defs>
<clipPath id="clip0_104_7062">
<rect width="40.0578" height="37.2678" fill="white" transform="translate(0.119141 0.78125)"/>
</clipPath>
</defs>
</svg>
