<svg width="41" height="39" viewBox="0 0 41 39" fill="none" xmlns="http://www.w3.org/2000/svg">
<g clip-path="url(#clip0_104_7037)">
<path d="M39.6038 23.9213C36.9702 33.9091 26.2661 39.9805 15.7161 37.4907C5.15069 35.001 -1.2717 24.8823 1.36202 14.9089C3.99559 4.92115 14.6842 -1.15029 25.2496 1.33952C35.7996 3.81462 42.2375 13.9334 39.6038 23.9213Z" fill="url(#paint0_linear_104_7037)"/>
<path d="M29.8667 17.0923C30.2516 14.6175 28.2651 13.2782 25.5241 12.3902L26.4172 9.02733L24.2613 8.51781L23.399 11.7933C22.8292 11.6623 22.2441 11.5313 21.6589 11.4148L22.5212 8.12475L20.3653 7.61523L19.4876 10.9635C19.0102 10.8616 18.5482 10.7597 18.1017 10.6578V10.6432L15.1142 9.94447L14.5444 12.1281C14.5444 12.1281 16.146 12.4775 16.1152 12.4921C16.9929 12.6959 17.1469 13.2491 17.1161 13.6858L16.0998 17.5145C16.1614 17.529 16.2384 17.5436 16.3308 17.5873C16.2538 17.5727 16.1768 17.5582 16.0998 17.529L14.683 22.8863C14.5752 23.1338 14.2981 23.5123 13.6975 23.3667C13.7129 23.3958 12.1268 23.0027 12.1268 23.0027L11.0488 25.3465L13.8669 26.0162C14.3905 26.1472 14.8986 26.2637 15.4068 26.3947L14.5136 29.7866L16.6695 30.2962L17.5627 26.9333C18.1479 27.0789 18.733 27.2245 19.2874 27.3555L18.4096 30.7038L20.5655 31.2133L21.4587 27.8214C25.1545 28.4764 27.9264 28.2144 29.0813 25.0554C30.0206 22.5223 29.0351 21.052 27.0948 20.0912C28.5269 19.7855 29.5895 18.8975 29.8667 17.0923ZM24.9235 23.6433C24.2613 26.1763 19.734 24.8079 18.2711 24.4585L19.4568 19.9602C20.9197 20.3096 25.6319 20.9938 24.9235 23.6433ZM25.6011 17.0486C24.9851 19.3633 21.2277 18.1841 20.0112 17.893L21.0891 13.8168C22.3056 14.108 26.2324 14.6466 25.6011 17.0486Z" fill="white"/>
</g>
<defs>
<linearGradient id="paint0_linear_104_7037" x1="20.4718" y1="0.772306" x2="20.4718" y2="38.0452" gradientUnits="userSpaceOnUse">
<stop stop-color="#F9AA4B"/>
<stop offset="1" stop-color="#F7931A"/>
</linearGradient>
<clipPath id="clip0_104_7037">
<rect width="39.422" height="37.2678" fill="white" transform="translate(0.771484 0.78125)"/>
</clipPath>
</defs>
</svg>
