<svg width="40" height="39" viewBox="0 0 40 39" fill="none" xmlns="http://www.w3.org/2000/svg">
<g clip-path="url(#clip0_104_7049)">
<ellipse cx="20.3505" cy="19.4151" rx="19.6474" ry="18.6339" fill="#7F6EE9"/>
<path d="M20.7865 5.47914V5.49237C20.8004 5.55852 20.8004 5.6379 20.8004 5.71728V15.256C20.7865 15.3089 20.7446 15.3221 20.7028 15.3486C20.4098 15.4809 20.1308 15.5999 19.8379 15.719C19.4334 15.891 19.0149 16.0762 18.6104 16.2482L17.1457 16.8832C16.7411 17.0552 16.3366 17.2272 15.946 17.3992C15.4717 17.6109 14.9835 17.8093 14.5092 18.021C14.1047 18.193 13.7002 18.3782 13.2817 18.5502C12.9469 18.6957 12.6121 18.828 12.2913 18.9735C12.2634 18.9868 12.2355 19 12.2076 19C12.1936 19 12.1936 19 12.1797 18.9868L12.5563 18.3914C13.2817 17.2537 13.9931 16.1291 14.7185 14.9914C15.4857 13.7742 16.2669 12.5571 17.0341 11.3399C17.7455 10.2154 18.4709 9.09088 19.1823 7.96634C19.6984 7.1461 20.2285 6.32585 20.7446 5.5056C20.7586 5.47914 20.7725 5.46591 20.7725 5.43945H20.7865C20.7725 5.45268 20.7865 5.46591 20.7865 5.47914Z" fill="#F3F3F3"/>
<path d="M29.3506 18.9861L29.3646 18.9994L27.314 20.1504L20.8694 23.7621C20.8415 23.7753 20.8136 23.7886 20.7997 23.8018C20.7578 23.8018 20.7578 23.7621 20.7578 23.7489V23.6298V15.4538C20.7578 15.4141 20.7578 15.3612 20.7718 15.3215C20.7857 15.2686 20.8276 15.2818 20.8694 15.295C21.0507 15.3744 21.246 15.4538 21.4274 15.5332C21.9714 15.7713 22.5154 16.0094 23.0595 16.2344C23.5337 16.4328 23.9941 16.6445 24.4683 16.8429C24.9426 17.0414 25.4169 17.253 25.8912 17.4515C26.2957 17.6235 26.7142 17.8087 27.1187 17.9807C27.5233 18.1527 27.9417 18.3379 28.3463 18.5099C28.6671 18.6422 28.9879 18.7877 29.3088 18.92C29.3088 18.9597 29.3227 18.9729 29.3506 18.9861Z" fill="#8A8DA7"/>
<path d="M20.7845 32.018C20.7845 32.0312 20.7706 32.0445 20.7706 32.0577H20.7566C20.7566 32.0312 20.7287 32.018 20.7148 31.9915C19.8499 30.8405 18.985 29.6763 18.1202 28.5253C17.2414 27.3479 16.3486 26.1572 15.4698 24.9797C14.6189 23.842 13.754 22.691 12.9031 21.5532C12.6799 21.2489 12.4567 20.9579 12.2335 20.6536C12.2196 20.6271 12.2056 20.6139 12.1777 20.5742C12.2196 20.5742 12.2475 20.6007 12.2614 20.6139C13.475 21.2886 14.6747 21.9633 15.8883 22.6381C17.2832 23.4186 18.6642 24.1992 20.0591 24.9797L20.7706 25.3766C20.7985 25.4031 20.7985 25.4296 20.7985 25.456V31.8328C20.7985 31.8989 20.7985 31.9651 20.7845 32.018Z" fill="#F3F3F3"/>
<path d="M12.1641 19.014V19.0008C12.6104 18.8156 13.0429 18.6171 13.4893 18.4319C14.0612 18.1805 14.6331 17.9424 15.205 17.691C15.6375 17.5058 16.0838 17.3074 16.5163 17.1221C17.1579 16.8443 17.7857 16.5797 18.4273 16.3019C18.8598 16.1167 19.2922 15.9315 19.7386 15.733C20.0455 15.6007 20.3663 15.4684 20.6732 15.3361C20.7011 15.3229 20.7429 15.3097 20.7569 15.2832C20.7708 15.2832 20.7708 15.2964 20.7569 15.3097V23.7106C20.7569 23.7503 20.7429 23.79 20.7708 23.8164C20.7429 23.8561 20.715 23.8164 20.7011 23.8032C20.5755 23.737 20.45 23.6709 20.3245 23.5915C17.6322 22.0833 14.926 20.5619 12.2338 19.0537C12.2199 19.0405 12.192 19.0272 12.1641 19.014Z" fill="#C5C8D9"/>
<path d="M29.3225 20.5742H29.3364C29.3364 20.6007 29.3085 20.6271 29.2946 20.6536C26.7279 24.0801 24.1612 27.5199 21.5945 30.9464C21.3295 31.3036 21.0505 31.6608 20.7854 32.018C20.7715 32.0048 20.7715 31.9915 20.7715 31.9783V31.8989V25.4825V25.3634C21.3574 25.0327 21.9293 24.7151 22.5152 24.3844C24.775 23.1143 27.0348 21.8575 29.2806 20.5874C29.2946 20.6007 29.3085 20.5874 29.3225 20.5742Z" fill="#C5C8D9"/>
<path d="M20.7701 15.3087V15.2822V15.2029V5.59803C20.7701 5.55834 20.7561 5.53188 20.784 5.49219C23.6158 9.95063 26.4475 14.3958 29.2653 18.8543C29.2932 18.894 29.335 18.9469 29.349 18.9998C29.1537 18.9337 28.9723 18.8411 28.791 18.7617C28.5678 18.6691 28.3307 18.5632 28.1075 18.4706C27.968 18.4045 27.8145 18.3516 27.675 18.2854C27.4379 18.1796 27.2008 18.087 26.9636 17.9811C26.8241 17.9282 26.6846 17.862 26.5451 17.7959L25.6245 17.399C25.471 17.3329 25.3176 17.2667 25.1502 17.2006L24.4806 16.9227C24.3411 16.8698 24.2016 16.8037 24.0621 16.7375L23.1415 16.3406C22.988 16.2745 22.8346 16.2083 22.6672 16.1422L21.9976 15.8643C21.8442 15.7982 21.7047 15.7321 21.5513 15.6659C21.2862 15.5468 21.0212 15.4278 20.7422 15.3219C20.784 15.3087 20.7701 15.3087 20.7701 15.3087Z" fill="#C5C8D9"/>
</g>
<defs>
<clipPath id="clip0_104_7049">
<rect width="39.2948" height="37.2678" fill="white" transform="translate(0.703125 0.78125)"/>
</clipPath>
</defs>
</svg>
