<svg width="160" height="42" viewBox="0 0 160 42" fill="none" xmlns="http://www.w3.org/2000/svg">
<path d="M5.86079 37.1102H0.703125V40.2768C0.703125 40.8291 1.15084 41.2768 1.70312 41.2768H158.668C159.221 41.2768 159.668 40.8291 159.668 40.2768V10.4946L153.174 24.56C152.773 25.4277 151.5 25.2928 151.29 24.3604L149.334 15.6717C149.187 15.0175 148.45 14.6908 147.866 15.0209L144.518 16.914C144.068 17.1684 143.498 17.0379 143.204 16.6129L140.486 12.689C140.15 12.2033 139.468 12.1136 139.017 12.4957L129.679 20.4153C129.401 20.6511 129.017 20.7169 128.676 20.5872L126.677 19.8258C126.203 19.6455 125.669 19.848 125.434 20.2972L120.518 29.7055C120.131 30.4451 119.062 30.4138 118.72 29.6529L114.773 20.8866C114.746 20.8273 114.714 20.7708 114.676 20.7178L109.658 13.6582C109.287 13.1364 108.528 13.0927 108.1 13.5685L105.61 16.3333C105.295 16.6836 104.777 16.766 104.369 16.5311L97.9686 12.8517C97.4037 12.527 96.6841 12.8206 96.5076 13.4478L94.4934 20.6058C94.4578 20.7323 94.3977 20.8506 94.3163 20.9538L91.7494 24.2118C91.3803 24.6803 90.6858 24.7236 90.2614 24.3046L86.9558 21.0414C86.7957 20.8834 86.5871 20.784 86.3636 20.7591L83.4471 20.4352C83.0761 20.394 82.7589 20.1496 82.6245 19.8014L77.6445 6.89628C77.3728 6.19241 76.4493 6.03136 75.9555 6.60174L73.3146 9.65194C72.8181 10.2254 71.8888 10.0589 71.6224 9.34865L69.1024 2.63193C68.8038 1.83613 67.7115 1.75204 67.2946 2.49276L62.8366 10.4144C62.6594 10.7291 62.3263 10.9239 61.9651 10.9239H55.3328C55.0103 10.9239 54.7076 11.0794 54.5198 11.3416L52.2497 14.511C51.8508 15.0679 51.0227 15.0679 50.6238 14.511L49.2351 12.5722C48.7523 11.8982 47.7062 12.0706 47.4653 12.8639L39.9847 37.4939C39.8939 37.7931 39.6683 38.0326 39.375 38.1411L34.8425 39.819C34.3816 39.9897 33.865 39.8 33.6239 39.3717L30.2572 33.3892C29.9594 32.8602 29.2628 32.7163 28.7798 33.0841L20.5324 39.3649C20.0255 39.7509 19.2917 39.5707 19.0212 38.9939L17.1893 35.0878C17.1507 35.0055 17.1011 34.9289 17.0418 34.8601L11.8652 28.8456C11.3902 28.2937 10.5034 28.4183 10.1989 29.0797L6.76912 36.5285C6.60585 36.8831 6.25116 37.1102 5.86079 37.1102Z" fill="url(#paint0_linear_104_7051)"/>
<path d="M0.703125 37.1103H5.86079C6.25116 37.1103 6.60585 36.8831 6.76912 36.5285L10.1989 29.0797C10.5034 28.4183 11.3902 28.2937 11.8652 28.8456L17.0418 34.8601C17.1011 34.9289 17.1507 35.0055 17.1893 35.0878L19.0212 38.9939C19.2917 39.5707 20.0255 39.7509 20.5324 39.3649L28.7798 33.0841C29.2628 32.7163 29.9594 32.8602 30.2572 33.3893L33.6239 39.3717C33.865 39.8 34.3816 39.9897 34.8425 39.819L39.375 38.1411C39.6683 38.0326 39.8939 37.7931 39.9847 37.4939L47.4653 12.8639C47.7062 12.0706 48.7523 11.8982 49.2351 12.5722L50.6238 14.511C51.0227 15.0679 51.8508 15.0679 52.2497 14.511L54.5198 11.3416C54.7076 11.0794 55.0103 10.9239 55.3328 10.9239H61.9651C62.3263 10.9239 62.6594 10.7291 62.8366 10.4144L67.2946 2.49276C67.7115 1.75204 68.8038 1.83613 69.1024 2.63193L71.6224 9.34865C71.8888 10.0589 72.8181 10.2254 73.3146 9.65194L75.9555 6.60174C76.4493 6.03136 77.3728 6.19241 77.6445 6.89628L82.6245 19.8014C82.7589 20.1496 83.0761 20.394 83.4471 20.4352L86.3636 20.7591C86.5871 20.784 86.7957 20.8834 86.9558 21.0414L90.2614 24.3046C90.6858 24.7236 91.3803 24.6803 91.7494 24.2118L94.3163 20.9538C94.3977 20.8506 94.4578 20.7323 94.4934 20.6058L96.5076 13.4478C96.6841 12.8206 97.4037 12.527 97.9686 12.8517L104.369 16.5311C104.777 16.766 105.295 16.6836 105.61 16.3333L108.1 13.5685C108.528 13.0927 109.287 13.1365 109.658 13.6582L114.676 20.7178C114.714 20.7708 114.746 20.8273 114.773 20.8866L118.72 29.6529C119.062 30.4138 120.131 30.4451 120.518 29.7055L125.434 20.2972C125.669 19.848 126.203 19.6455 126.677 19.8258L128.676 20.5872C129.017 20.7169 129.401 20.6511 129.679 20.4154L139.017 12.4957C139.468 12.1136 140.15 12.2033 140.486 12.689L143.204 16.6129C143.498 17.0379 144.068 17.1684 144.518 16.914L147.867 15.0209C148.45 14.6908 149.187 15.0175 149.334 15.6717L151.236 24.1185C151.451 25.0745 152.77 25.1826 153.138 24.2744L158.722 10.4946" stroke="#FA2256" stroke-linecap="round"/>
<defs>
<linearGradient id="paint0_linear_104_7051" x1="80.1858" y1="0.621094" x2="80.1858" y2="41.2768" gradientUnits="userSpaceOnUse">
<stop offset="0.104167" stop-color="#FCE2ED" stop-opacity="0.38"/>
<stop offset="1" stop-color="#2C2C2C" stop-opacity="0"/>
</linearGradient>
</defs>
</svg>
