<svg width="161" height="42" viewBox="0 0 161 42" fill="none" xmlns="http://www.w3.org/2000/svg">
<path d="M5.01598 37.6985L0.773438 35.3029V40.2768C0.773438 40.8291 1.22115 41.2768 1.77344 41.2768H159.253C159.805 41.2768 160.253 40.8291 160.253 40.2768V21.6127L157.714 26.7745C157.614 26.978 157.448 27.1414 157.242 27.2379L153.647 28.9299C153.135 29.1708 152.525 28.9394 152.302 28.4196L148.66 19.9365C148.502 19.5692 148.141 19.331 147.741 19.331H144.771C144.36 19.331 143.991 19.0796 143.84 18.6972L141.96 13.9184C141.694 13.2448 140.824 13.0673 140.316 13.5832L138.996 14.9253C138.808 15.1164 138.551 15.224 138.283 15.224H130.406C130.195 15.224 129.989 15.1572 129.819 15.0332L127.162 13.1048C126.699 12.7683 126.048 12.8891 125.736 13.3694L121.426 20.0068C120.986 20.6843 119.966 20.5875 119.661 19.8392L115.136 8.72431C115.045 8.50151 114.877 8.31888 114.663 8.2099L109.888 5.78357C109.706 5.69066 109.499 5.65621 109.296 5.68487L103.7 6.47479C103.354 6.52366 103.007 6.38818 102.786 6.11748L99.06 1.55918C98.6623 1.07268 97.9198 1.06914 97.5175 1.55183L92.6438 7.39973C92.2285 7.89801 91.4561 7.87519 91.071 7.35327L89.9632 5.85198C89.5563 5.30063 88.728 5.31251 88.3372 5.87531L84.6702 11.1552C84.2459 11.7662 83.3267 11.7165 82.9708 11.0633L78.2401 2.3819C77.8454 1.65746 76.7926 1.69573 76.4515 2.44692L72.1591 11.8994C71.997 12.2566 71.6409 12.4859 71.2486 12.4859H68.7508C68.3661 12.4859 68.0155 12.7066 67.8491 13.0535L61.2095 26.8962C61.1486 27.0232 61.0616 27.1358 60.9542 27.2268L53.1015 33.8779C52.7472 34.178 52.2328 34.1948 51.8598 33.9183L48.5708 31.4808C48.3277 31.3006 48.0161 31.2402 47.7232 31.3166L41.7784 32.8658C41.4128 32.9611 41.1321 33.2543 41.0529 33.6236L40.2742 37.2509C40.1753 37.7118 39.7679 38.041 39.2965 38.041H34.609C34.3339 38.041 34.0709 37.9276 33.882 37.7276L28.4048 31.9287C28.0234 31.5249 27.386 31.5093 26.9853 31.894L20.2374 38.3714C19.8867 38.708 19.3449 38.7438 18.9531 38.4562L12.1851 33.4881C11.8122 33.2143 11.3001 33.2321 10.9471 33.5311L6.15398 37.5908C5.83457 37.8613 5.38047 37.9043 5.01598 37.6985Z" fill="url(#paint0_linear_104_7039)"/>
<path d="M0.773438 35.3029L5.01598 37.6985C5.38047 37.9043 5.83457 37.8613 6.15398 37.5908L10.9471 33.5311C11.3001 33.2321 11.8122 33.2143 12.1851 33.4881L18.9531 38.4562C19.3449 38.7437 19.8867 38.708 20.2374 38.3714L26.9853 31.894C27.386 31.5093 28.0234 31.5249 28.4048 31.9287L33.882 37.7276C34.0709 37.9276 34.3339 38.041 34.609 38.041H39.2965C39.7679 38.041 40.1753 37.7118 40.2742 37.2508L41.0529 33.6236C41.1321 33.2543 41.4128 32.9611 41.7784 32.8658L47.7232 31.3166C48.0161 31.2402 48.3277 31.3006 48.5708 31.4808L51.8598 33.9183C52.2328 34.1948 52.7471 34.178 53.1015 33.8779L60.9542 27.2268C61.0616 27.1358 61.1486 27.0232 61.2095 26.8962L67.8491 13.0535C68.0155 12.7066 68.3661 12.4859 68.7508 12.4859H71.2486C71.6409 12.4859 71.997 12.2566 72.1592 11.8994L76.4515 2.44692C76.7926 1.69573 77.8454 1.65746 78.2401 2.3819L82.9708 11.0633C83.3267 11.7165 84.2459 11.7662 84.6702 11.1552L88.3372 5.8753C88.728 5.31251 89.5563 5.30063 89.9631 5.85198L91.071 7.35327C91.4561 7.87519 92.2285 7.89801 92.6438 7.39973L97.5175 1.55183C97.9198 1.06914 98.6623 1.07268 99.06 1.55918L102.786 6.11748C103.007 6.38818 103.354 6.52366 103.7 6.47479L109.296 5.68487C109.499 5.65621 109.706 5.69066 109.888 5.78356L114.663 8.2099C114.877 8.31888 115.045 8.50151 115.136 8.72431L119.661 19.8392C119.966 20.5875 120.986 20.6843 121.426 20.0068L125.736 13.3694C126.048 12.8891 126.699 12.7683 127.162 13.1048L129.819 15.0332C129.989 15.1572 130.195 15.224 130.406 15.224H138.283C138.551 15.224 138.808 15.1164 138.996 14.9253L140.316 13.5832C140.824 13.0673 141.694 13.2448 141.96 13.9184L143.84 18.6972C143.991 19.0796 144.36 19.331 144.771 19.331H147.741C148.141 19.331 148.502 19.5692 148.66 19.9365L152.302 28.4196C152.525 28.9394 153.135 29.1708 153.647 28.9299L157.162 27.2756C157.415 27.1565 157.607 26.937 157.691 26.6702L159.304 21.5298" stroke="#11CABE" stroke-linecap="round"/>
<defs>
<linearGradient id="paint0_linear_104_7039" x1="80.5133" y1="0.621094" x2="80.5133" y2="41.2768" gradientUnits="userSpaceOnUse">
<stop offset="0.260417" stop-color="#BCFFE9" stop-opacity="0.4"/>
<stop offset="1" stop-opacity="0"/>
</linearGradient>
</defs>
</svg>
