<svg width="164" height="42" viewBox="0 0 164 42" fill="none" xmlns="http://www.w3.org/2000/svg">
<path d="M6.39456 37.1102H1.11914V40.2768C1.11914 40.8291 1.56686 41.2768 2.11914 41.2768H162.171C162.723 41.2768 163.171 40.8291 163.171 40.2768V10.4946L156.522 24.6189C156.118 25.4783 154.856 25.3425 154.643 24.4166L152.632 15.6537C152.483 15.0051 151.754 14.6801 151.172 15.0029L147.701 16.9281C147.255 17.1756 146.694 17.0473 146.399 16.6304L143.601 12.6667C143.264 12.1901 142.593 12.1016 142.144 12.4747L132.586 20.4264C132.31 20.6559 131.933 20.72 131.596 20.5945L129.513 19.8161C129.043 19.6407 128.516 19.8402 128.28 20.2827L123.238 29.7476C122.849 30.478 121.792 30.4467 121.447 29.6946L117.404 20.8872C117.377 20.8275 117.344 20.7707 117.305 20.7175L112.171 13.6325C111.8 13.1203 111.052 13.0771 110.624 13.5431L108.049 16.3493C107.734 16.6917 107.226 16.7724 106.821 16.5441L100.242 12.8339C99.6789 12.5165 98.9674 12.8082 98.7892 13.4292L96.7312 20.6039C96.6945 20.7317 96.6328 20.8508 96.5496 20.9544L93.9148 24.2348C93.5461 24.6939 92.8625 24.7366 92.4395 24.327L89.0411 21.036C88.8814 20.8814 88.6747 20.7844 88.4537 20.7603L85.4552 20.4336C85.0857 20.3934 84.769 20.1515 84.6329 19.8056L79.542 6.86458C79.2684 6.16905 78.3563 6.00856 77.8617 6.56893L75.1114 9.68502C74.614 10.2485 73.6961 10.0825 73.4276 9.38052L70.8302 2.58933C70.529 1.80184 69.4484 1.71762 69.0288 2.44893L64.4549 10.4215C64.2767 10.7323 63.9458 10.9239 63.5876 10.9239H56.7938C56.4745 10.9239 56.1745 11.0764 55.9862 11.3342L53.6455 14.54C53.246 15.087 52.4297 15.087 52.0302 14.5399L50.564 12.5318C50.079 11.8677 49.0443 12.0402 48.8011 12.8258L41.1634 37.4942C41.0708 37.7932 40.8436 38.0316 40.5495 38.1384L35.896 39.8282C35.4392 39.9941 34.9292 39.8075 34.6873 39.3859L31.2344 33.3671C30.9358 32.8466 30.2492 32.7045 29.7685 33.0636L21.3044 39.3865C20.7995 39.7638 20.0756 39.5854 19.8038 39.0167L17.9257 35.0883C17.8862 35.0057 17.8355 34.9289 17.7752 34.8601L12.4706 28.8145C11.9951 28.2726 11.12 28.3965 10.8137 29.0491L7.29979 36.5352C7.13505 36.8861 6.78227 37.1102 6.39456 37.1102Z" fill="url(#paint0_linear_104_7064)"/>
<path d="M1.11914 37.1103H6.39456C6.78227 37.1103 7.13505 36.8861 7.29979 36.5352L10.8137 29.0491C11.12 28.3966 11.9952 28.2726 12.4706 28.8145L17.7752 34.8601C17.8355 34.9289 17.8862 35.0057 17.9257 35.0883L19.8038 39.0167C20.0756 39.5854 20.7995 39.7638 21.3044 39.3865L29.7685 33.0636C30.2492 32.7045 30.9358 32.8466 31.2344 33.3671L34.6873 39.3859C34.9292 39.8075 35.4392 39.9942 35.8961 39.8282L40.5495 38.1384C40.8436 38.0316 41.0708 37.7932 41.1634 37.4942L48.8011 12.8258C49.0443 12.0402 50.0791 11.8677 50.564 12.5318L52.0302 14.54C52.4297 15.087 53.246 15.087 53.6455 14.54L55.9862 11.3342C56.1745 11.0764 56.4746 10.9239 56.7938 10.9239H63.5876C63.9458 10.9239 64.2767 10.7323 64.4549 10.4215L69.0288 2.44893C69.4484 1.71762 70.529 1.80184 70.8302 2.58933L73.4276 9.38052C73.6961 10.0825 74.614 10.2485 75.1114 9.68502L77.8617 6.56893C78.3563 6.00856 79.2684 6.16905 79.542 6.86458L84.6329 19.8056C84.769 20.1515 85.0857 20.3934 85.4552 20.4336L88.4537 20.7603C88.6747 20.7844 88.8814 20.8814 89.0411 21.0361L92.4395 24.327C92.8625 24.7366 93.5461 24.6939 93.9148 24.2348L96.5496 20.9544C96.6328 20.8508 96.6945 20.7317 96.7312 20.6039L98.7892 13.4292C98.9674 12.8082 99.6789 12.5165 100.242 12.8339L106.821 16.5441C107.226 16.7724 107.734 16.6917 108.049 16.3493L110.624 13.5431C111.052 13.0771 111.8 13.1203 112.171 13.6325L117.305 20.7175C117.344 20.7707 117.377 20.8275 117.404 20.8872L121.447 29.6946C121.792 30.4467 122.849 30.478 123.238 29.7476L128.28 20.2827C128.516 19.8402 129.043 19.6407 129.513 19.8161L131.596 20.5945C131.933 20.72 132.31 20.6559 132.586 20.4264L142.144 12.4747C142.593 12.1016 143.264 12.1901 143.601 12.6667L146.399 16.6304C146.694 17.0473 147.255 17.1756 147.701 16.9281L151.172 15.0029C151.754 14.6801 152.483 15.0051 152.632 15.6537L154.589 24.18C154.807 25.1296 156.116 25.2386 156.488 24.3381L162.207 10.4946" stroke="#11CABE" stroke-linecap="round"/>
<defs>
<linearGradient id="paint0_linear_104_7064" x1="82.1451" y1="0.621094" x2="82.1451" y2="41.2768" gradientUnits="userSpaceOnUse">
<stop offset="0.260417" stop-color="#BCFBFF" stop-opacity="0.4"/>
<stop offset="1" stop-opacity="0"/>
</linearGradient>
</defs>
</svg>
