<svg width="27" height="44" viewBox="0 0 27 44" fill="none" xmlns="http://www.w3.org/2000/svg">
<path d="M17.0332 3.66699H12.6332C12.0253 3.66699 11.5332 4.15907 11.5332 4.76699C11.5332 5.37491 12.0253 5.86699 12.6332 5.86699H17.0332C17.6411 5.86699 18.1332 5.37491 18.1332 4.76699C18.1332 4.15907 17.6411 3.66699 17.0332 3.66699Z" fill="#BD47FB"/>
<path d="M22 0H4.4C1.97416 0 0 1.97416 0 4.4V39.6C0 42.0258 1.97416 44 4.4 44H22C24.4258 44 26.4 42.0258 26.4 39.6V4.4C26.4 1.97416 24.4258 0 22 0ZM24.2 39.6C24.2 40.8152 23.2152 41.8 22 41.8H4.4C3.18484 41.8 2.2 40.8152 2.2 39.6V4.4C2.2 3.18484 3.18484 2.2 4.4 2.2H22C23.2152 2.2 24.2 3.18484 24.2 4.4V39.6Z" fill="#BD47FB"/>
<path d="M13.0002 40.3331C14.2152 40.3331 15.2002 39.3481 15.2002 38.1331C15.2002 36.9181 14.2152 35.9331 13.0002 35.9331C11.7851 35.9331 10.8002 36.9181 10.8002 38.1331C10.8002 39.3481 11.7851 40.3331 13.0002 40.3331Z" fill="#BD47FB"/>
<path d="M8.96658 5.86699C9.57409 5.86699 10.0666 5.3745 10.0666 4.76699C10.0666 4.15948 9.57409 3.66699 8.96658 3.66699C8.35906 3.66699 7.86658 4.15948 7.86658 4.76699C7.86658 5.3745 8.35906 5.86699 8.96658 5.86699Z" fill="#BD47FB"/>
</svg>
